<?xml version="1.0" encoding="UTF-8"?>
<svg id="Capa_2" data-name="Capa 2" xmlns="http://www.w3.org/2000/svg" viewBox="0 0 466 626">
  <defs>
    <style>
      .cls-1, .cls-2 {
        stroke-width: 0px;
      }

      .cls-2 {
        fill: #fff;
      }
    </style>
  </defs>
  <g id="Capa_1-2" data-name="Capa 1">
    <path class="cls-1" d="m230,0c2,0,4,0,6,0,.93.28,1.83.67,2.78.84,15.4,2.69,30.93,4.78,46.18,8.15,38.16,8.45,74.31,22.01,106.33,44.99,35.61,25.56,60.43,58.74,70.32,102.01,2.1,9.19,2.96,18.66,4.39,28v17c-.27,1.44-.67,2.88-.79,4.33-3.04,38.01-16.05,72.07-39.77,102.07-13.4,16.95-20.74,36.37-21.14,58.05-.42,22.62,6.92,42.84,20.7,60.65,2.55,3.29,3.13,6.07,1.98,9.93-2.51,8.44-4.84,16.95-6.88,25.52-7.95,33.4-23.27,62.83-46.68,88.03-29.81,32.08-66.27,53.56-107.51,67.33-10.19,3.4-20.61,6.09-30.92,9.1h-4c-1.52-.57-3-1.31-4.57-1.67-31.24-7.14-60.59-18.94-87.59-36.24-37.65-24.11-67.48-55.31-83.68-97.58-6.87-17.94-10.91-36.95-16.45-55.42-.98-3.26-.5-5.52,1.55-8.17,28.77-36.98,28.41-83.88-.75-120.7-16.25-20.52-27.6-43.52-33.59-68.96-2.65-11.26-3.99-22.84-5.93-34.27,0-7,0-14,0-21,.78-5.56,1.41-11.16,2.36-16.69,7.57-43.97,30.26-78.78,65.07-105.95C105.1,29.97,148.9,14.92,195.15,5.94,206.71,3.69,218.38,1.96,230,0Zm58.08,393.42c-1.25-1.99-2.04-3.23-2.83-4.48-15.72-24.88-26.28-51.8-28.28-81.21-1.22-18.02.37-36.22.62-54.35.2-14.71,8.05-23.95,21.15-29.06,15.19-5.92,31.1-6.97,47.2-5.76,14.48,1.09,27.57,5.9,39,15,19.21,15.29,22.4,40.72,7.35,58.82-16.45,19.8-49.39,28.43-73.36,18.89-5.72-2.28-10.99-5.68-16.83-8.76,3.22,8.25,8.46,14.41,15.67,18.98,13.91,8.82,28.27,6.44,43.7.78-23.4,22.78-19,44.16-4.68,66.68.1-.11.29-.21.29-.32.03-.83.05-1.65.02-2.48-.59-16.81,3.6-32.28,12.97-46.3,6.41-9.59,14.34-17.56,23.1-25.2,25.76-22.45,40.18-51.71,47.71-84.65.3-1.3.67-2.58.88-3.9.2-1.29.24-2.62.35-3.93-7.63,18.4-16.85,35.61-28.7,51.43,3.96-17.33,1.36-33.12-9.62-47.31-11.13-14.38-26.73-19.54-44.1-21.37.86-.76,1.58-.98,2.3-1.24,25.38-8.89,38.56-35.39,29.89-60.83-12.11-35.53-33.46-64.39-63.4-87.04-22.34-16.9-48.17-25.96-74.47-34.07-.91-.28-1.97-.36-2.92-.23-34.66,4.81-68.3,13.15-99.48,29.54-44.49,23.39-75.57,57.73-87.02,107.84-3.38,14.79-4.13,29.75-2.79,44.92,3.86-20.8,9.29-41.03,18.95-59.95,10.09-19.76,31.25-44.91,40.19-47.39-12.74,12.43-23.07,26.4-31.01,42.17-15.38,30.56-19.41,63.26-19.32,96.98.03,13.86,3.53,26.21,10.17,38.01.98,1.74,1.89,3.52,2.92,5.23,12.63,21.01,27.64,39.51,50.79,49.92,21.3,9.58,43.28,12.95,66.21,8.09,8.04-1.71,15.87-4.43,24.42-6.88-25.26,35.51-58.58,47.23-100.2,36.29-.26,1.04-.55,1.82-.64,2.62-2.39,20.36-8.87,39.45-20.57,56.16-5.48,7.82-5.97,14.52-3.73,23.31,5.58,21.82,11.27,43.49,23.15,62.96,29.59,48.5,73.37,77.41,127.32,92.26,1.53.42,3.37.41,4.9,0,48.63-13.19,89.35-38.31,119.15-79.65,4.29-5.95,7.94-12.37,11.89-18.57-17.45,19.44-36.52,36.63-58.17,51.04-23.06,15.35-48.92,24.76-74.1,35.6-1.43.61-3.63.36-5.14-.28-21.44-9.1-42.9-18.16-64.14-27.69-4.55-2.04-8.27-5.91-12.38-8.94,1.18-.9,1.66-.87,2.1-.71,22.72,8.43,46.18,13.85,70.15,17.13,2.11.29,5.05.29,6.41-.92,4.17-3.7,7.75-8.05,12.37-13.02-2.82.56-4.39.96-5.99,1.17-10.16,1.32-19.01-1.22-25.12-9.82-3.95-5.56-4.27-11.94-1.07-18.02,4.09-7.76,11.16-11.21,19.59-11.93,6.32-.54,12.23.99,17.45,4.76,5.4,3.9,8.14,9.31,8.47,17.02,21.22-29.15,36.1-59.95,44.58-93.69.87-3.44-.86-8.37-2.97-11.55-4.32-6.51-10.93-6.83-18.27-5.15-25.27,5.8-49.95,3.96-73.65-7.03-11.14-5.17-20.56-12.46-27.59-23.18,9,2.15,17.47,4.18,25.91,6.2,2.88-10.56,8.58-15.76,19.48-17.41,14.72-2.23,28.31-.91,37.08,14.25,8.64-3.16,17.35-6.36,26.7-9.78Zm12.22,108.56c-.8,7.76,1.84,12.01,8.23,14.13,10.5,3.49,24.66-4.51,27.09-15.3,1.32-5.86-1.56-11-7-12.51,6.25,7.64.81,16.51-6.01,20.37-9.26,5.24-17.92,2.93-22.31-6.7Zm-83.26,31.15c-4.46,3.6-3.64,10.98.61,15.43,7.68,8.04,23.73,7.8,31.03-.53,4.25-4.85,4.26-10.31.04-14.93,1.01,9.34-4.77,15.24-15.29,15.61-10.53.37-16.93-5.72-16.4-15.58Zm-.13-130.99c-3.54,5.25-3.58,8.07-.67,11.47,7.13,8.32,25.81,8.47,33.15.28,3.45-3.85,3.29-7.19-.51-10.88.33,7.4-5.13,11.87-14.8,12.12-11.29.29-17.18-3.93-17.17-12.98Zm77.89,106.36c-1.63-11.8,2.93-20.14,12.58-25.43,9.44-5.18,18.94-4.85,28.95,2.61-8.8-10.98-22.14-12.46-33.14-4.79-10.09,7.03-13.77,18.37-8.39,27.61Z"/>
    <path class="cls-2" d="m288.08,393.42c-9.35,3.43-18.06,6.62-26.7,9.78-8.76-15.16-22.36-16.48-37.08-14.25-10.9,1.65-16.6,6.85-19.48,17.41-8.44-2.02-16.91-4.05-25.91-6.2,7.04,10.72,16.45,18.01,27.59,23.18,23.7,11,48.38,12.83,73.65,7.03,7.34-1.68,13.95-1.36,18.27,5.15,2.11,3.18,3.83,8.11,2.97,11.55-8.48,33.74-23.36,64.53-44.58,93.69-.34-7.71-3.07-13.12-8.47-17.02-5.22-3.77-11.14-5.29-17.45-4.76-8.43.72-15.5,4.17-19.59,11.93-3.21,6.08-2.89,12.46,1.07,18.02,6.12,8.6,14.96,11.14,25.12,9.82,1.6-.21,3.18-.61,5.99-1.17-4.62,4.97-8.2,9.32-12.37,13.02-1.36,1.21-4.31,1.2-6.41.92-23.97-3.27-47.43-8.7-70.15-17.13-.44-.16-.92-.19-2.1.71,4.1,3.03,7.83,6.9,12.38,8.94,21.25,9.53,42.71,18.59,64.14,27.69,1.51.64,3.71.89,5.14.28,25.19-10.84,51.05-20.25,74.1-35.6,21.65-14.41,40.72-31.6,58.17-51.04-3.95,6.2-7.6,12.62-11.89,18.57-29.8,41.34-70.52,66.45-119.15,79.65-1.53.42-3.38.43-4.9,0-53.95-14.85-97.73-43.76-127.32-92.26-11.88-19.47-17.57-41.13-23.15-62.96-2.25-8.79-1.75-15.49,3.73-23.31,11.71-16.71,18.18-35.8,20.57-56.16.09-.8.38-1.58.64-2.62,41.62,10.94,74.93-.78,100.2-36.29-8.55,2.44-16.38,5.17-24.42,6.88-22.93,4.86-44.92,1.49-66.21-8.09-23.15-10.41-38.16-28.91-50.79-49.92-1.03-1.71-1.94-3.49-2.92-5.23-6.64-11.8-10.13-24.15-10.17-38.01-.08-33.73,3.94-66.42,19.32-96.98,7.93-15.76,18.27-29.74,31.01-42.17-8.94,2.48-30.1,27.63-40.19,47.39-9.66,18.92-15.09,39.15-18.95,59.95-1.33-15.16-.59-30.13,2.79-44.92,11.46-50.1,42.53-84.45,87.02-107.84,31.18-16.39,64.83-24.73,99.48-29.54.95-.13,2.01-.05,2.92.23,26.3,8.11,52.13,17.17,74.47,34.07,29.95,22.66,51.29,51.52,63.4,87.04,8.67,25.44-4.51,51.94-29.89,60.83-.72.25-1.44.47-2.3,1.24,17.38,1.83,32.98,6.98,44.1,21.37,10.98,14.19,13.58,29.99,9.62,47.31,11.85-15.82,21.07-33.03,28.7-51.43-.11,1.31-.15,2.63-.35,3.93-.21,1.31-.58,2.6-.88,3.9-7.53,32.94-21.95,62.2-47.71,84.65-8.76,7.63-16.69,15.6-23.1,25.2-9.37,14.03-13.56,29.49-12.97,46.3.03.82,0,1.65-.02,2.48,0,.11-.19.22-.29.32-14.32-22.52-18.72-43.9,4.68-66.68-15.43,5.66-29.79,8.04-43.7-.78-7.21-4.57-12.45-10.73-15.67-18.98,5.84,3.08,11.11,6.48,16.83,8.76,23.97,9.54,56.91.91,73.36-18.89,15.04-18.1,11.86-43.53-7.35-58.82-11.43-9.1-24.53-13.91-39-15-16.1-1.21-32.01-.16-47.2,5.76-13.11,5.11-20.95,14.35-21.15,29.06-.25,18.12-1.84,36.33-.62,54.35,2,29.41,12.56,56.33,28.28,81.21.79,1.25,1.57,2.49,2.83,4.48Zm-117.24-176.31c-20.86.33-40.04,4.34-55.84,18.67-18.04,16.35-19.55,41.29-3.01,58.67,15.93,16.73,36.38,22.9,58.75,20,26-3.37,47.5-24.84,53.07-50.53,4.23-19.54-2.99-33.68-21.93-40.07-9.97-3.36-20.67-4.56-31.04-6.74Zm61.64,232.58c-.85.05-2.36.05-3.84.24-13.32,1.71-21.92,13.3-18.58,24.99,2.6,9.08,13.79,15.83,24.65,14.87,11.39-1.01,20.09-7.84,21.49-16.88,1.97-12.73-8.36-23.12-23.72-23.21Zm.89-280.42c.75-.04,2.27.05,3.73-.21,8.76-1.57,15.82-5.67,18.6-14.57,2.35-7.52.05-14.12-5.89-19.35-8.78-7.72-24.33-7.9-33.29-.37-6.02,5.05-8.44,11.44-6.59,19.17,2.15,8.98,11.61,15.3,23.43,15.34Zm1.71-68.96c2.43-.83,7.48-1.74,11.67-4.13,13.35-7.63,12.96-25.47-.53-32.84-8.85-4.83-17.91-4.83-26.71.12-11.51,6.47-13.62,20.49-4.58,29.56,4.85,4.87,10.92,6.78,20.16,7.29Zm-76.72,420.94c15.36.02,24.28-12.79,18.38-26.39-4.89-11.25-19.11-17.82-30.86-14.27-8.75,2.65-13.42,9.16-13.09,18.25.44,12.11,12.17,22.38,25.58,22.4Z"/>
    <path class="cls-2" d="m300.3,501.98c4.39,9.63,13.05,11.93,22.31,6.7,6.82-3.86,12.26-12.73,6.01-20.37,5.44,1.51,8.32,6.66,7,12.51-2.43,10.79-16.59,18.79-27.09,15.3-6.39-2.13-9.03-6.37-8.23-14.13Z"/>
    <path class="cls-2" d="m217.04,533.13c-.53,9.86,5.87,15.94,16.4,15.58,10.52-.37,16.3-6.27,15.29-15.61,4.22,4.63,4.21,10.08-.04,14.93-7.3,8.33-23.35,8.58-31.03.53-4.26-4.46-5.07-11.84-.61-15.43Z"/>
    <path class="cls-2" d="m216.9,402.14c0,9.06,5.88,13.27,17.17,12.98,9.67-.25,15.13-4.72,14.8-12.12,3.8,3.69,3.96,7.03.51,10.88-7.34,8.2-26.03,8.04-33.15-.28-2.92-3.4-2.87-6.22.67-11.47Z"/>
    <path class="cls-2" d="m294.79,508.5c-5.38-9.24-1.7-20.58,8.39-27.61,11-7.67,24.34-6.18,33.14,4.79-10.01-7.46-19.52-7.79-28.95-2.61-9.64,5.29-14.21,13.63-12.58,25.43Z"/>
    <path class="cls-1" d="m170.85,217.11c10.37,2.18,21.07,3.38,31.04,6.74,18.93,6.38,26.16,20.53,21.93,40.07-5.57,25.69-27.07,47.16-53.07,50.53-22.37,2.9-42.82-3.27-58.75-20-16.54-17.38-15.03-42.33,3.01-58.67,15.81-14.32,34.98-18.34,55.84-18.67Z"/>
    <path class="cls-1" d="m232.48,449.7c15.36.09,25.69,10.48,23.72,23.21-1.4,9.04-10.1,15.87-21.49,16.88-10.86.96-22.05-5.79-24.65-14.87-3.34-11.69,5.26-23.28,18.58-24.99,1.48-.19,2.99-.19,3.84-.24Zm16.05,13.47c1.24,8.97-3.59,15.36-12.37,15.75-4.58.2-9.54-.95-13.8-2.75-5-2.1-5.89-7.18-5.2-13.11-4.17,6.59-3.94,11.18.19,15.75,7.77,8.58,23.71,8.49,31.33-.18,4.11-4.68,4.23-9.44-.15-15.46Z"/>
    <path class="cls-1" d="m233.37,169.28c-11.83-.04-21.28-6.36-23.43-15.34-1.85-7.73.57-14.11,6.59-19.17,8.96-7.53,24.51-7.35,33.29.37,5.94,5.23,8.24,11.82,5.89,19.35-2.78,8.9-9.84,13-18.6,14.57-1.46.26-2.99.17-3.73.21Zm-16.27-14.1c-.71-9.58,4.66-15.49,14.97-15.24,4.23.1,8.77,1.67,12.53,3.72,4.18,2.28,5.02,6.84,3.86,12.23,4.37-5.86,4.37-10.5.57-15.11-7.71-9.35-24.76-9.25-32.32.19-3.69,4.61-3.56,9.56.39,14.21Z"/>
    <path class="cls-1" d="m235.08,100.32c-9.25-.51-15.32-2.43-20.16-7.29-9.03-9.07-6.93-23.09,4.58-29.56,8.8-4.95,17.87-4.95,26.71-.12,13.5,7.37,13.88,25.21.53,32.84-4.19,2.4-9.23,3.3-11.67,4.13Zm13.8-14.52c3.47-3.84,3.96-8.11,1.35-12.61-6.65-11.46-27.88-11.49-34.53-.07-2.71,4.65-2.17,9.06,1.72,12.86-1.45-5.72.49-10.08,5.27-12.84,6.87-3.96,13.98-3.9,20.8.2,4.61,2.77,6.29,7.02,5.38,12.46Z"/>
    <path class="cls-1" d="m158.36,521.26c-13.4-.02-25.14-10.3-25.58-22.4-.33-9.09,4.34-15.6,13.09-18.25,11.75-3.56,25.98,3.02,30.86,14.27,5.91,13.6-3.02,26.41-18.38,26.39Zm-14.11-33.47c-6.95,3.91-8.81,9.34-6.06,15.86,3.91,9.25,16.28,15.35,25.61,12.62,6.82-1.99,9.82-6.75,8.61-13.66-4.42,8.9-12.12,11.23-21.39,6.48-8.93-4.57-11.69-12.39-6.78-21.3Z"/>
    <path class="cls-2" d="m248.53,463.17c4.37,6.02,4.26,10.78.15,15.46-7.62,8.67-23.56,8.76-31.33.18-4.13-4.56-4.36-9.16-.19-15.75-.69,5.93.2,11.01,5.2,13.11,4.26,1.79,9.22,2.95,13.8,2.75,8.78-.39,13.62-6.78,12.37-15.75Z"/>
    <path class="cls-2" d="m217.1,155.17c-3.94-4.65-4.08-9.6-.39-14.21,7.56-9.44,24.6-9.54,32.32-.19,3.8,4.61,3.8,9.25-.57,15.11,1.16-5.39.32-9.95-3.86-12.23-3.77-2.05-8.3-3.62-12.53-3.72-10.31-.25-15.68,5.66-14.97,15.24Z"/>
    <path class="cls-2" d="m248.88,85.81c.9-5.44-.77-9.69-5.38-12.46-6.82-4.1-13.93-4.16-20.8-.2-4.79,2.76-6.73,7.11-5.27,12.84-3.89-3.81-4.43-8.22-1.72-12.86,6.65-11.41,27.88-11.39,34.53.07,2.61,4.5,2.12,8.77-1.35,12.61Z"/>
    <path class="cls-2" d="m144.25,487.79c-4.91,8.91-2.15,16.72,6.78,21.3,9.27,4.75,16.97,2.42,21.39-6.48,1.21,6.91-1.79,11.67-8.61,13.66-9.33,2.72-21.7-3.37-25.61-12.62-2.75-6.51-.89-11.95,6.06-15.86Z"/>
  </g>
</svg>