<?xml version="1.0" encoding="UTF-8"?>
<svg id="Capa_2" data-name="Capa 2" xmlns="http://www.w3.org/2000/svg" viewBox="0 0 683.32 650.01">
  <defs>
    <style>
      .cls-1 {
        fill: #9e9e9e;
        stroke-width: 0px;
      }
    </style>
  </defs>
  <g id="Capa_1-2" data-name="Capa 1">
    <path class="cls-1" d="m208.34,650.01c-41.35,0-75-33.64-75-75s33.65-75,75-75,75,33.64,75,75-33.65,75-75,75Zm0-100c-13.79,0-25,11.21-25,25s11.21,25,25,25,25-11.21,25-25-11.21-25-25-25Z"/>
    <path class="cls-1" d="m508.34,650.01c-41.36,0-75-33.64-75-75s33.64-75,75-75,75,33.64,75,75-33.64,75-75,75Zm0-100c-13.79,0-25,11.21-25,25s11.21,25,25,25,25-11.21,25-25-11.21-25-25-25Z"/>
    <path class="cls-1" d="m441.67,366.67c-6.4,0-12.8-2.44-17.68-7.32l-32.32-32.32-32.32,32.32c-9.76,9.76-25.59,9.76-35.36,0-9.76-9.76-9.76-25.59,0-35.36l32.32-32.32-32.32-32.32c-9.76-9.76-9.76-25.59,0-35.36,9.76-9.76,25.59-9.76,35.36,0l32.32,32.32,32.32-32.32c9.76-9.76,25.59-9.76,35.36,0,9.76,9.76,9.76,25.59,0,35.36l-32.32,32.32,32.32,32.32c9.76,9.76,9.76,25.59,0,35.36-4.88,4.88-11.28,7.32-17.68,7.32Z"/>
    <path class="cls-1" d="m499.69,466.67c-13.81,0-25-11.19-25-25s11.19-25,25-25c47.95,0,69.62-.38,80.65-9.37s15.77-30.13,25.45-77.1l16.65-80.79c9.07-45.42,15.06-75.49,7.32-85.83-.6-.55-6.29-5.13-30.67-7.59-19.78-2-44.72-2-71.12-2h-202.18c-13.81,0-25-11.19-25-25s11.19-25,25-25h202.18c66.51,0,119.04,0,141.34,28.99,21.72,28.24,14.77,63.08,2.14,126.33l-.03.15-16.66,80.83c-11.32,54.91-17.55,85.16-42.84,105.76s-56.17,20.61-112.23,20.61Zm-141.35,0h-35.42c-96.85,0-150.19,0-186.47-38.26-36.4-38.39-37.85-79.8-37.85-178.07v-90.72c0-44.82-.33-65.11-8.05-76.41-7.49-10.96-24.34-17.22-65.14-31.56l-8.71-3.06C3.69,44.01-3.16,29.74,1.42,16.71,6,3.69,20.27-3.16,33.3,1.42l8.71,3.06c46.95,16.5,72.81,25.6,89.84,50.52,9.5,13.91,13.62,29.07,15.4,49.01h44.43c13.81,0,25,11.19,25,25s-11.19,25-25,25h-43.07c0,1.84,0,3.71,0,5.61v90.72c0,95.82,2.23,120.57,24.13,143.67,20.66,21.79,58.64,22.66,150.18,22.66h35.42c13.81,0,25,11.19,25,25s-11.19,25-25,25Z"/>
  </g>
</svg>